<svg xmlns="http://www.w3.org/2000/svg" viewBox="0 0 505 505">
    <path fill="#3845a8"
          d="M254.59,433.3c-92.31,0-167.41-75.11-167.41-167.42S162.28,98.46,254.59,98.46,422,173.56,422,265.88,346.91,433.3,254.59,433.3Zm0-303.09c-74.81,0-135.67,60.85-135.67,135.67s60.86,135.67,135.67,135.67,133.68-60.86,133.68-135.67S329.4,130.21,254.59,130.21Z"/>
    <path fill="#3845a8" d="M330.79,226.67a23.85,23.85,0,1,1-23.85-23.84A23.85,23.85,0,0,1,330.79,226.67Z"/>
    <path fill="#3845a8" d="M226.09,226.67a23.85,23.85,0,1,1-23.85-23.84A23.85,23.85,0,0,1,226.09,226.67Z"/>
    <path fill="#3845a8" d="M176.88,276.05s29.61,94.71,75.87,94.71,79.56-86,79.56-86S233.65,363.51,176.88,276.05Z"/>
    <path fill="#3845a8"
          d="M500.82,176.83a134.15,134.15,0,0,0-32.19-87.26,137.3,137.3,0,0,0-15.3-15.3c-23.53-20-48-32.19-81.26-32.19H239.85V74.27H372.07c56.56,0,96.56,46,96.56,102.56V304.32h32.19Z"/>
    <path fill="#3845a8"
          d="M1.62,354.92a134.16,134.16,0,0,0,32.19,87.27A138,138,0,0,0,49.1,457.48a134.17,134.17,0,0,0,87.27,32.2H268.59v-32.2H136.37A102.68,102.68,0,0,1,33.81,354.92V227.43H1.62Z"/>
    <path fill="#3845a8" d="M352,7.9c-16.64,0-30.12,3.82-30.12,8.54v20h60.23v-20C382.15,11.72,368.66,7.9,352,7.9Z"/>
</svg>
